<?xml version="1.0" encoding="UTF-8"?><svg id="a" xmlns="http://www.w3.org/2000/svg" viewBox="0 0 1000.1 1000.1"><defs><style>.c{fill:#fff;}</style></defs><g id="b"><path class="c" d="M1000.1,500.05c0,276.17-223.88,500.05-500.05,500.05S0,776.22,0,500.05,223.88,0,500.05,0s500.05,223.88,500.05,500.05ZM405.34,524.77c.84,1,4.25,2.39,5.67,2.82,21.68,6.49,39.84-10.64,30.56-32.57-8.75-20.68-41.15-21.31-59.74-16.67-30.2,7.54-56.22,38.14-61.52,68.48-.83,4.76-.66,17.73-1.79,20.21-1.74,3.83-17.91,16.79-22.17,19.83-33,23.61-82.88,42.13-114.28,5.66-54.02-62.74-.93-190.07,54.5-237.44,27.57-23.56,65.03-32.72,68.46,15.48,1.4,19.66-1.4,34.5-14.48,49.5-3.85,4.41-13.37,10.16-13.58,15.51-.48,12.1,22.13,1.14,27.38-1.72,61.44-33.52,32.7-118.37-34.79-113.79-114.53,7.76-215.96,244.26-99.53,308.51,53.99,29.79,116.6-4.55,153.52-45.5,14.86,28.69,50.89,35.09,71,7.99,12.55,35.73,53.11,7.43,72.48-6.01-1.7,12.55-6.38,27,12.82,22.31,20.71-5.06,19.5-31.73,25.43-47.58,5.55-14.86,21.67-34.96,33.75-45.25,3.25-2.77,19.32-15.95,17.84-4.26-1.18,9.36-9.75,26.68-12.54,37.56-4.56,17.79-12,52.52,12.16,59.27s57.57-16.18,73.54-33.05c2.08,10.89,2.9,34.48,17.6,34.9,17.84.52,44.91-26.93,55.92-39.89,2.69-3.17,16.17-21.9,17.5-22.5,2.94-1.33,10.73-.3,15.04-.96,5.86-.9,11.72-3.92,16.94-6.55-6.36,22.65-2.79,48.8,18.1,62.41,20.19,13.16,39.35,7.12,54.9-9.41,2.19,15.31,14.83,29.39,28.33,36.18,4.49,2.26,10.04,5.29,14.62,2.26,7.78-5.14-1.47-10.52-4.36-14.53-9.43-13.1-10.73-25.45-8.31-41.14,1.24-8.04,8.49-29.31,5.96-35.52-3.82-9.37-17.59-3.52-23.25,1.23-11.18,9.41-11.02,25.53-20.57,37.43-15.16,18.87-31.42,12.83-35.97-9.86-6.09-30.39,13.58-80.09,50.97-74.97,8.6,1.18,15.45,8.13,13.37,17.2-1.79,7.83-14.62,5.33-11.12,13.47,1.78,4.14,14.61,5.53,18.73,5.13,25.71-2.5,27.97-35.5,6.29-47.07-22.99-12.27-55.08-4.91-75.01,10.35-12.96,9.93-23.25,28.12-40.43,30.57-3.08.44-6.15.26-9.24.25,4.18-12.71,11.01-24.86,11.98-38.51,3.32-46.83-50.49-48.02-62.49-7.49-6.66,22.5-2.31,43.42,14.49,59.57,1.26,1.21,3.45,1.06,3.05,2.89-4.85,8.97-29.33,42.35-37.75,44.38-3.22.78-2.8-1.97-3.62-5-6.24-23.03-4.23-49.52,1.2-72.46,2.38-10.06,14.99-34.15-6.14-30.13-6.29,1.2-15.38,8.7-19.26,13.74-11.83,15.37-7.33,43.61-9.45,61.55-.56,4.7-11.96,15.61-16.01,18.99-7.99,6.66-40.07,26.62-40.1,4.98-.01-8.57,5.89-27.61,8.37-36.71,3.16-11.62,15.21-42.1,13.28-51.84-4.09-20.6-32.66-7.39-43.87-.75-13.56,8.03-25.03,19.88-35.2,31.8-1.53-12.54,16.85-41.39-6.97-39.99-12.98.76-19.73,6.77-23.03,18.99-5.53,20.46-7.02,43.63-12.43,64.32-7.52,5.86-14.79,12.37-23.14,17.11-10.36,5.88-24.18,13.14-22.9-5.91.81-12.1,15.72-46.77-10.71-36.7-17.46,6.65-16.54,22.81-24.51,36.49-6.26,10.75-19.8,24.1-31.84,12.23-21.96-21.64-1.2-85.82,29.98-91.09,12.76-2.16,29.27.15,26.03,17.04-1.27,6.59-15.85,6.84-9.68,14.24Z"/><path class="c" d="M714.74,467.37c9.31,8.38,5.69,35.03,1.29,45.69-10.02-9.29-15.75-24.83-13.9-38.41.91-6.67,6.3-12.96,12.61-7.28Z"/></g></svg>